<?xml version="1.0" encoding="UTF-8"?>
<svg width="115px" height="111px" viewBox="0 0 115 111" version="1.1" xmlns="http://www.w3.org/2000/svg" xmlns:xlink="http://www.w3.org/1999/xlink">
    <!-- Generator: Sketch 43.1 (39012) - http://www.bohemiancoding.com/sketch -->
    <title>7-Eleven_logo</title>
    <desc>Created with Sketch.</desc>
    <defs></defs>
    <g id="Page-1" stroke="none" stroke-width="1" fill="none" fill-rule="evenodd">
        <g id="1.0-About-us" transform="translate(-643.000000, -195.000000)">
            <g id="title" transform="translate(310.000000, 195.000000)">
                <g id="7-Eleven_logo" transform="translate(333.000000, 0.000000)">
                    <polygon id="Fill-1" fill="#FEFEFE" points="4.42307692 106.153846 110.576923 106.153846 110.576923 4.42307692 4.42307692 4.42307692"></polygon>
                    <polygon id="Fill-2" fill="#FEFEFE" points="0 110.576923 115 110.576923 115 0 0 0"></polygon>
                    <g id="Group-25" transform="translate(4.423077, 4.423077)">
                        <path d="M87.0456231,89.9322607 C87.0456231,92.3033702 85.5232,94.2266903 83.6469308,94.2266903 L65.0974308,94.2310378 L65.0974308,98.2707058 L39.7788538,98.2707058 L39.7788538,94.2266903 L20.6189692,94.2266903 C18.7427,94.2266903 17.2220462,92.3033702 17.2220462,89.9322607 L9.20654615,10.2396801 C9.20654615,7.86770118 11.0766231,5.94525049 13.3810462,5.94525049 L90.7963923,5.94525049 C93.1017,5.94525049 94.9708923,7.86770118 94.9708923,10.2396801 L87.0456231,89.9322607 Z M0.00123846154,100.863536 L105.560623,100.863536 L105.560623,0.0500828402 L0.00123846154,0.0500828402 L0.00123846154,100.863536 Z" id="Fill-3" fill="#00805F"></path>
                        <path d="M23.2984692,17.6110743 L75.1342769,17.6110743 C70.0309308,19.4926588 54.4926615,29.8309395 50.6136231,36.7808031 L23.3550846,36.7808031 L23.2984692,17.6110743 Z" id="Fill-5" fill="#F5811F"></path>
                        <path d="M64.6106269,72.5389946 C63.8710885,79.4810327 63.8436654,87.9351205 63.8436654,96.8135212 L41.3753192,96.8135212 C41.3753192,87.9351205 41.7450885,79.4810327 42.4846269,72.5389946 L64.6106269,72.5389946 Z" id="Fill-7" fill="#ED1C24"></path>
                        <path d="M66.6943385,54.6056859 C67.1525692,49.1122244 74.7938769,40.1442658 82.2060692,37.7896767 L82.2060692,16.6018529 C61.8201077,25.570681 48.5597231,39.135653 45.6935692,54.5500383 L66.6943385,54.6056859 Z" id="Fill-9" fill="#ED1C24"></path>
                        <path d="M69.0268038,75.6637812 C69.4107269,75.6637812 69.7504192,75.6368269 69.7504192,75.1864292 C69.7504192,74.8229808 69.4169192,74.7551603 69.1011115,74.7551603 L68.4863038,74.7551603 L68.4863038,75.6637812 L69.0268038,75.6637812 Z M68.4863038,77.3123414 L68.03515,77.3123414 L68.03515,74.3786695 L69.1701115,74.3786695 C69.87515,74.3786695 70.2245731,74.6343006 70.2245731,75.2133835 C70.2245731,75.7368187 69.8893038,75.9672345 69.4505346,76.0202737 L70.2997654,77.3123414 L69.7919962,77.3123414 L69.0064577,76.0411415 L68.4863038,76.0411415 L68.4863038,77.3123414 Z M69.0338808,77.9644617 C70.2051115,77.9644617 71.1277654,77.0627967 71.1277654,75.8385495 C71.1277654,74.6343006 70.2051115,73.7256797 69.0338808,73.7256797 C67.8502654,73.7256797 66.9258423,74.6343006 66.9258423,75.8385495 C66.9258423,77.0627967 67.8502654,77.9644617 69.0338808,77.9644617 L69.0338808,77.9644617 Z M66.4056885,75.8385495 C66.4056885,74.3786695 67.60965,73.3022362 69.0338808,73.3022362 C70.4421885,73.3022362 71.64615,74.3786695 71.64615,75.8385495 C71.64615,77.3123414 70.4421885,78.3879052 69.0338808,78.3879052 C67.60965,78.3879052 66.4056885,77.3123414 66.4056885,75.8385495 L66.4056885,75.8385495 Z" id="Fill-11" fill="#00805F"></path>
                        <polygon id="Fill-13" fill="#00805F" points="21.1871577 56.6231723 29.3999269 56.6231723 29.3999269 59.8185618 25.8075038 59.8185618 25.8075038 62.509645 29.3999269 62.509645 29.3999269 65.1989892 25.8075038 65.1989892 25.8075038 67.8900723 29.3999269 67.8900723 29.3999269 70.9724277 21.1871577 70.9724277"></polygon>
                        <polygon id="Fill-15" fill="#00805F" points="40.7484808 56.6231723 48.9603654 56.6231723 48.9603654 59.8185618 45.3670577 59.8185618 45.3670577 62.509645 48.9603654 62.509645 48.9603654 65.1989892 45.3670577 65.1989892 45.3670577 67.8900723 48.9603654 67.8900723 48.9603654 70.9724277 40.7484808 70.9724277"></polygon>
                        <polygon id="Fill-17" fill="#00805F" points="35.5595923 67.8900723 39.1520154 67.8900723 39.1520154 70.9724277 30.9383615 70.9724277 30.9383615 56.6231723 35.5595923 56.6231723"></polygon>
                        <polygon id="Fill-19" fill="#00805F" points="50.1423 56.6231723 52.4299154 70.9724277 58.3683385 70.9724277 61.1460308 56.6231723 57.7154923 56.6231723 55.9161846 66.3197666 54.1734923 56.6231723"></polygon>
                        <path d="M76.3905192,57.502926 L76.3905192,56.6229984 L71.9417885,56.6229984 L71.9417885,70.9722538 L76.3905192,70.9722538 L76.3905192,60.8843872 C76.6169808,59.314951 78.8992885,59.7349165 78.8992885,60.6313646 L78.8992885,70.9722538 L83.3480192,70.9722538 L83.3480192,58.8089057 C83.3480192,56.3047636 79.70075,55.1457285 76.3905192,57.502926" id="Fill-21" fill="#00805F"></path>
                        <polygon id="Fill-23" fill="#00805F" points="62.36105 56.5671769 70.5729346 56.5671769 70.5729346 59.7634359 66.9813962 59.7634359 66.9813962 62.4536496 70.5729346 62.4536496 70.5729346 65.1429938 66.9813962 65.1429938 66.9813962 67.8332074 70.5729346 67.8332074 70.5729346 70.9164323 62.36105 70.9164323"></polygon>
                    </g>
                </g>
            </g>
        </g>
    </g>
</svg>